<mxfile host="Electron" modified="2023-07-07T16:03:28.267Z" agent="Mozilla/5.0 (Windows NT 10.0; Win64; x64) AppleWebKit/537.36 (KHTML, like Gecko) draw.io/21.5.0 Chrome/112.0.5615.204 Electron/24.5.1 Safari/537.36" etag="n8oUNTMiWpxXvJmmRsXe" version="21.5.0" type="device">
  <diagram name="Page-1" id="1-c6DclUCDYQO9WgXx6J">
    <mxGraphModel dx="1728" dy="1004" grid="0" gridSize="10" guides="1" tooltips="1" connect="1" arrows="1" fold="1" page="0" pageScale="1" pageWidth="1654" pageHeight="1169" math="0" shadow="0">
      <root>
        <mxCell id="0" />
        <mxCell id="1" parent="0" />
        <mxCell id="5DxcXM10qaRKIpu-fiGk-6" value="evse_status_req" style="edgeStyle=orthogonalEdgeStyle;rounded=0;orthogonalLoop=1;jettySize=auto;html=1;entryX=1;entryY=0.25;entryDx=0;entryDy=0;exitX=0;exitY=0.25;exitDx=0;exitDy=0;" edge="1" parent="1" source="5DxcXM10qaRKIpu-fiGk-2" target="5DxcXM10qaRKIpu-fiGk-3">
          <mxGeometry relative="1" as="geometry" />
        </mxCell>
        <mxCell id="5DxcXM10qaRKIpu-fiGk-2" value="header.ts" style="rounded=0;whiteSpace=wrap;html=1;" vertex="1" parent="1">
          <mxGeometry x="899" y="268" width="178" height="112" as="geometry" />
        </mxCell>
        <mxCell id="5DxcXM10qaRKIpu-fiGk-7" value="evse_status_resp" style="edgeStyle=orthogonalEdgeStyle;rounded=0;orthogonalLoop=1;jettySize=auto;html=1;entryX=0;entryY=0.75;entryDx=0;entryDy=0;exitX=1;exitY=0.75;exitDx=0;exitDy=0;" edge="1" parent="1" source="5DxcXM10qaRKIpu-fiGk-3" target="5DxcXM10qaRKIpu-fiGk-2">
          <mxGeometry relative="1" as="geometry" />
        </mxCell>
        <mxCell id="5DxcXM10qaRKIpu-fiGk-3" value="&quot;background_checks&quot;" style="rounded=0;whiteSpace=wrap;html=1;" vertex="1" parent="1">
          <mxGeometry x="413" y="268" width="178" height="112" as="geometry" />
        </mxCell>
        <mxCell id="5DxcXM10qaRKIpu-fiGk-9" value="Flask" style="text;html=1;strokeColor=none;fillColor=none;align=center;verticalAlign=middle;whiteSpace=wrap;rounded=0;fontSize=18;" vertex="1" parent="1">
          <mxGeometry x="472" y="31" width="60" height="30" as="geometry" />
        </mxCell>
        <mxCell id="5DxcXM10qaRKIpu-fiGk-10" value="Angular" style="text;html=1;strokeColor=none;fillColor=none;align=center;verticalAlign=middle;whiteSpace=wrap;rounded=0;fontSize=18;" vertex="1" parent="1">
          <mxGeometry x="958" y="31" width="60" height="30" as="geometry" />
        </mxCell>
        <mxCell id="5DxcXM10qaRKIpu-fiGk-11" value="Transmitted values:&lt;br&gt;- estop_state&lt;br&gt;- evse_state" style="text;html=1;strokeColor=none;fillColor=none;align=left;verticalAlign=top;whiteSpace=wrap;rounded=0;" vertex="1" parent="1">
          <mxGeometry x="1108" y="268" width="246" height="111" as="geometry" />
        </mxCell>
        <mxCell id="5DxcXM10qaRKIpu-fiGk-17" value="requested_charging_power" style="edgeStyle=orthogonalEdgeStyle;rounded=0;orthogonalLoop=1;jettySize=auto;html=1;entryX=1;entryY=0.5;entryDx=0;entryDy=0;" edge="1" parent="1" source="5DxcXM10qaRKIpu-fiGk-13" target="5DxcXM10qaRKIpu-fiGk-15">
          <mxGeometry relative="1" as="geometry" />
        </mxCell>
        <mxCell id="5DxcXM10qaRKIpu-fiGk-13" value="select_power.ts" style="rounded=0;whiteSpace=wrap;html=1;" vertex="1" parent="1">
          <mxGeometry x="899" y="637" width="178" height="112" as="geometry" />
        </mxCell>
        <mxCell id="5DxcXM10qaRKIpu-fiGk-19" style="edgeStyle=orthogonalEdgeStyle;rounded=0;orthogonalLoop=1;jettySize=auto;html=1;" edge="1" parent="1" source="5DxcXM10qaRKIpu-fiGk-15" target="5DxcXM10qaRKIpu-fiGk-18">
          <mxGeometry relative="1" as="geometry" />
        </mxCell>
        <mxCell id="5DxcXM10qaRKIpu-fiGk-20" value="write" style="edgeLabel;html=1;align=center;verticalAlign=middle;resizable=0;points=[];" vertex="1" connectable="0" parent="5DxcXM10qaRKIpu-fiGk-19">
          <mxGeometry x="-0.1647" y="1" relative="1" as="geometry">
            <mxPoint x="-14" y="-1" as="offset" />
          </mxGeometry>
        </mxCell>
        <mxCell id="5DxcXM10qaRKIpu-fiGk-15" value="&quot;requested_charging_power&quot;" style="rounded=0;whiteSpace=wrap;html=1;" vertex="1" parent="1">
          <mxGeometry x="413" y="637" width="178" height="112" as="geometry" />
        </mxCell>
        <mxCell id="5DxcXM10qaRKIpu-fiGk-16" value="Transmitted values:&lt;br&gt;- value in kW as int (50/100/150/200)" style="text;html=1;strokeColor=none;fillColor=none;align=left;verticalAlign=top;whiteSpace=wrap;rounded=0;" vertex="1" parent="1">
          <mxGeometry x="1108" y="637" width="246" height="111" as="geometry" />
        </mxCell>
        <mxCell id="5DxcXM10qaRKIpu-fiGk-18" value="shared memory object" style="rounded=0;whiteSpace=wrap;html=1;" vertex="1" parent="1">
          <mxGeometry x="69" y="637" width="178" height="112" as="geometry" />
        </mxCell>
        <mxCell id="5DxcXM10qaRKIpu-fiGk-26" value="redirect on &#39;click anywhere&#39;" style="edgeStyle=orthogonalEdgeStyle;rounded=0;orthogonalLoop=1;jettySize=auto;html=1;" edge="1" parent="1" source="5DxcXM10qaRKIpu-fiGk-22">
          <mxGeometry relative="1" as="geometry">
            <mxPoint x="988" y="616" as="targetPoint" />
          </mxGeometry>
        </mxCell>
        <mxCell id="5DxcXM10qaRKIpu-fiGk-22" value="home.ts" style="rounded=0;whiteSpace=wrap;html=1;" vertex="1" parent="1">
          <mxGeometry x="899" y="425" width="178" height="112" as="geometry" />
        </mxCell>
        <mxCell id="5DxcXM10qaRKIpu-fiGk-24" value="Transmitted values:&lt;br&gt;- None" style="text;html=1;strokeColor=none;fillColor=none;align=left;verticalAlign=top;whiteSpace=wrap;rounded=0;" vertex="1" parent="1">
          <mxGeometry x="1108" y="425" width="246" height="111" as="geometry" />
        </mxCell>
        <mxCell id="5DxcXM10qaRKIpu-fiGk-39" style="edgeStyle=orthogonalEdgeStyle;rounded=0;orthogonalLoop=1;jettySize=auto;html=1;entryX=1;entryY=0.5;entryDx=0;entryDy=0;" edge="1" parent="1" source="5DxcXM10qaRKIpu-fiGk-28" target="5DxcXM10qaRKIpu-fiGk-31">
          <mxGeometry relative="1" as="geometry" />
        </mxCell>
        <mxCell id="5DxcXM10qaRKIpu-fiGk-40" value="requested_cash_limit" style="edgeLabel;html=1;align=center;verticalAlign=middle;resizable=0;points=[];" vertex="1" connectable="0" parent="5DxcXM10qaRKIpu-fiGk-39">
          <mxGeometry x="0.1667" y="3" relative="1" as="geometry">
            <mxPoint x="25" y="-3" as="offset" />
          </mxGeometry>
        </mxCell>
        <mxCell id="5DxcXM10qaRKIpu-fiGk-28" value="add-value.ts" style="rounded=0;whiteSpace=wrap;html=1;" vertex="1" parent="1">
          <mxGeometry x="899" y="850" width="178" height="112" as="geometry" />
        </mxCell>
        <mxCell id="5DxcXM10qaRKIpu-fiGk-29" style="edgeStyle=orthogonalEdgeStyle;rounded=0;orthogonalLoop=1;jettySize=auto;html=1;" edge="1" parent="1" source="5DxcXM10qaRKIpu-fiGk-31" target="5DxcXM10qaRKIpu-fiGk-33">
          <mxGeometry relative="1" as="geometry" />
        </mxCell>
        <mxCell id="5DxcXM10qaRKIpu-fiGk-30" value="write" style="edgeLabel;html=1;align=center;verticalAlign=middle;resizable=0;points=[];" vertex="1" connectable="0" parent="5DxcXM10qaRKIpu-fiGk-29">
          <mxGeometry x="-0.1647" y="1" relative="1" as="geometry">
            <mxPoint x="-14" y="-1" as="offset" />
          </mxGeometry>
        </mxCell>
        <mxCell id="5DxcXM10qaRKIpu-fiGk-31" value="&quot;requested_cash_limit&quot;" style="rounded=0;whiteSpace=wrap;html=1;" vertex="1" parent="1">
          <mxGeometry x="413" y="850" width="178" height="112" as="geometry" />
        </mxCell>
        <mxCell id="5DxcXM10qaRKIpu-fiGk-32" value="Transmitted values:&lt;br&gt;- value in eur as int (any)" style="text;html=1;strokeColor=none;fillColor=none;align=left;verticalAlign=top;whiteSpace=wrap;rounded=0;" vertex="1" parent="1">
          <mxGeometry x="1108" y="850" width="246" height="111" as="geometry" />
        </mxCell>
        <mxCell id="5DxcXM10qaRKIpu-fiGk-33" value="shared memory object" style="rounded=0;whiteSpace=wrap;html=1;" vertex="1" parent="1">
          <mxGeometry x="69" y="850" width="178" height="112" as="geometry" />
        </mxCell>
        <mxCell id="5DxcXM10qaRKIpu-fiGk-36" value="redirect on click &#39;card-power&#39;" style="edgeStyle=orthogonalEdgeStyle;rounded=0;orthogonalLoop=1;jettySize=auto;html=1;" edge="1" parent="1">
          <mxGeometry relative="1" as="geometry">
            <mxPoint x="987.58" y="749" as="sourcePoint" />
            <mxPoint x="987.58" y="828" as="targetPoint" />
          </mxGeometry>
        </mxCell>
        <mxCell id="5DxcXM10qaRKIpu-fiGk-37" value="shared.service.ts" style="rounded=0;whiteSpace=wrap;html=1;" vertex="1" parent="1">
          <mxGeometry x="899" y="109" width="178" height="112" as="geometry" />
        </mxCell>
        <mxCell id="5DxcXM10qaRKIpu-fiGk-38" value="Contains:&lt;br&gt;- ev soc&lt;br&gt;- cash spent&lt;br&gt;- cash left&lt;br&gt;- charging power&lt;br&gt;- time remaining&lt;br&gt;- energy transfered" style="text;html=1;strokeColor=none;fillColor=none;align=left;verticalAlign=top;whiteSpace=wrap;rounded=0;" vertex="1" parent="1">
          <mxGeometry x="1108" y="110" width="246" height="111" as="geometry" />
        </mxCell>
      </root>
    </mxGraphModel>
  </diagram>
</mxfile>
